<svg class="SVGInline-svg" width="100%" height="100%" viewBox="136 235 27 16" version="1.1" xmlns="http://www.w3.org/2000/svg" xmlns:xlink="http://www.w3.org/1999/xlink">
    <g id="eye-Group-6" stroke="none" stroke-width="1" fill="none" fill-rule="evenodd" transform="translate(136.000000, 235.000000)">
        <path d="M25.8552955,7.61262372 C24.7894037,5.94151114 23.4136053,4.49617092 21.8115956,3.36474552 C21.3805366,3.06030844 20.7770527,3.15298793 20.4636765,3.57175094 C20.1503003,3.99051396 20.2457011,4.57678346 20.6767601,4.88122054 C22.0753835,5.86900358 23.2798595,7.13436163 24.2147885,8.60014994 C24.4954935,9.04024117 25.0902899,9.17594032 25.5433033,8.90324248 C25.9963168,8.63054464 26.1360005,8.05271494 25.8552955,7.61262372 Z M18.6061769,1.64936678 C16.9695652,1.02111813 15.2317475,0.695256573 13.4555374,0.695256573 C8.36876802,0.695256573 3.7794997,3.30598176 1.05385933,7.61564662 C0.77487287,8.05676795 0.916809242,8.63407933 1.37088309,8.90510767 C1.82495693,9.17613601 2.41921972,9.03824838 2.69820618,8.59712705 C5.08005481,4.83105085 9.05443138,2.5701229 13.4555374,2.5701229 C14.9872775,2.5701229 16.4846323,2.8508948 17.896945,3.39304148 C18.3925857,3.58330384 18.9531488,3.34720707 19.1489978,2.8657046 C19.3448467,2.38420213 19.1018175,1.83962914 18.6061769,1.64936678 Z" id="eye-Oval-165" fill="#D2D2D2"></path>
        <path d="M24.2147885,7.61262372 C21.8312401,11.3495676 17.813171,13.6426508 13.4555374,13.6426508 C12.6779409,13.6426508 11.9112818,13.5725993 11.1611686,13.4343284 C10.6375788,13.3378134 10.1325872,13.6719182 10.0332381,14.1805726 C9.93388913,14.6892269 10.2778042,15.1798137 10.801394,15.2763287 C11.6700967,15.4364596 12.5572083,15.5175171 13.4555374,15.5175171 C18.4987978,15.5175171 23.1283593,12.8754596 25.8552955,8.60014994 C26.1360005,8.16005872 25.9963168,7.58222902 25.5433033,7.30953118 C25.0902899,7.03683335 24.4954935,7.1725325 24.2147885,7.61262372 Z M7.93922328,12.3678129 C5.81614411,11.3239486 4.00552715,9.68272607 2.69820618,7.61564662 C2.41921972,7.17452528 1.82495693,7.03663766 1.37088309,7.30766599 C0.916809242,7.57869433 0.77487287,8.15600571 1.05385933,8.59712705 C2.54578155,10.95609 4.6221601,12.8382105 7.06772925,14.0406349 C7.54323002,14.2744266 8.12379014,14.0894782 8.36444657,13.6275412 C8.605103,13.1656041 8.41472405,12.6016045 7.93922328,12.3678129 Z" id="eye-Oval-165" fill="#D2D2D2"></path>
        <path d="M13.4555374,12.8169885 C16.1201973,12.8169885 18.280331,10.7184729 18.280331,8.12982266 C18.280331,5.54117246 16.1201973,3.44265684 13.4555374,3.44265684 C10.7908775,3.44265684 8.63074379,5.54117246 8.63074379,8.12982266 C8.63074379,10.7184729 10.7908775,12.8169885 13.4555374,12.8169885 Z M13.4555374,10.9421222 C11.8567414,10.9421222 10.5606612,9.68301278 10.5606612,8.12982266 C10.5606612,6.57663254 11.8567414,5.31752317 13.4555374,5.31752317 C15.0543333,5.31752317 16.3504135,6.57663254 16.3504135,8.12982266 C16.3504135,9.68301278 15.0543333,10.9421222 13.4555374,10.9421222 Z" id="eye-Oval-4" fill="#D2D2D2"></path>
        <path d="M17.6103635,3.21575987 C17.7521346,3.27043935 18.0135694,3.380193 18.3537895,3.5385015 C18.9225853,3.80316899 19.4909065,4.10381709 20.0166084,4.43214906 C20.3503412,4.64058495 20.6555463,4.85345946 20.9257347,5.0687109 L22.0883242,3.69146911 C21.7601949,3.43005775 21.3983107,3.17765073 21.0080896,2.93393453 C20.4121629,2.56174301 19.7787391,2.22665496 19.1457899,1.93213612 C18.7649631,1.75493283 18.4655835,1.62924947 18.2868893,1.5603292 L17.6103635,3.21575987 Z" id="eye-Path-12" fill="#D2D2D2"></path>
        <path d="M11.2286619,13.5043772 C11.0657396,13.4717333 10.765955,13.4020649 10.3762265,13.2948502 C9.72568792,13.1158863 9.07601935,12.8983186 8.47608972,12.6436042 C8.17284789,12.5148557 7.89029264,12.3797405 7.63244924,12.2388627 L6.73369986,13.7913039 C7.04773986,13.9628858 7.38483717,14.1240825 7.74186784,14.2756684 C8.42578666,14.5660424 9.15167002,14.8091337 9.87668336,15.0085857 C10.312286,15.1284204 10.6544256,15.2079319 10.8583172,15.2487845 L11.2286619,13.5043772 Z" id="eye-Path-12" fill="#D2D2D2"></path>
    </g>
</svg>